<?xml version="1.0" standalone="no"?>
<!DOCTYPE svg PUBLIC "-//W3C//DTD SVG 20010904//EN"
 "http://www.w3.org/TR/2001/REC-SVG-20010904/DTD/svg10.dtd">
<svg version="1.0" xmlns="http://www.w3.org/2000/svg"
 width="300.000000pt" height="300.000000pt" viewBox="0 0 300.000000 300.000000"
 preserveAspectRatio="xMidYMid meet">
<metadata>
Created by potrace 1.10, written by Peter Selinger 2001-2011
</metadata>
<g transform="translate(0.000000,300.000000) scale(0.100000,-0.100000)"
fill="#000000" stroke="none">
<path d="M609 2576 c-125 -33 -223 -126 -259 -244 -20 -66 -20 -85 -18 -852
l3 -785 23 -57 c32 -80 99 -150 180 -190 l67 -33 900 0 900 0 63 34 c78 42
144 114 174 189 l23 57 0 800 c0 751 -1 803 -18 853 -24 68 -82 140 -143 180
-99 63 -82 62 -1009 61 -632 0 -851 -3 -886 -13z m1734 -46 c79 -13 141 -46
193 -103 78 -87 75 -43 72 -943 l-3 -799 -23 -46 c-31 -63 -86 -117 -152 -148
l-55 -26 -875 0 -875 0 -57 27 c-73 34 -132 95 -158 164 -20 53 -20 74 -20
843 0 882 -3 840 72 926 48 54 123 95 193 105 76 11 1620 11 1688 0z"/>
<path d="M956 2079 c-110 -16 -261 -106 -254 -153 5 -33 43 -32 87 3 75 60
125 76 236 76 114 0 169 -16 241 -72 51 -38 87 -41 92 -7 6 39 -108 118 -203
142 -64 16 -136 20 -199 11z"/>
<path d="M974 1940 c-93 -19 -178 -75 -172 -114 4 -29 44 -33 72 -7 75 70 224
71 313 1 33 -26 59 -26 73 0 9 17 6 25 -22 50 -60 55 -182 87 -264 70z"/>
<path d="M974 1799 c-17 -5 -43 -20 -58 -34 -22 -21 -25 -28 -16 -45 14 -25
35 -25 67 0 34 26 92 26 127 -1 30 -23 54 -22 70 4 9 15 6 22 -17 42 -45 40
-110 52 -173 34z"/>
<path d="M1695 1668 c-3 -7 -27 -75 -54 -150 l-48 -138 37 0 c34 0 38 3 44 30
5 29 7 30 61 30 54 0 56 -1 62 -30 5 -27 9 -30 44 -30 l38 0 -52 150 -52 150
-38 0 c-21 0 -40 -5 -42 -12z m74 -165 c1 -8 -12 -13 -35 -13 -29 0 -35 3 -30
16 4 9 12 37 18 62 l11 46 18 -49 c10 -28 18 -56 18 -62z"/>
<path d="M1850 1650 c0 -29 2 -30 45 -30 l45 0 0 -120 0 -120 36 0 36 0 -4
120 -3 120 43 0 c40 0 42 1 42 30 l0 30 -120 0 -120 0 0 -30z"/>
<path d="M2120 1530 l0 -150 78 0 c53 0 88 5 112 18 107 53 107 205 0 260 -34
17 -61 22 -117 22 l-73 0 0 -150z m175 65 c19 -18 25 -35 25 -68 0 -54 -27
-83 -88 -93 l-42 -7 0 97 0 96 40 0 c30 0 47 -7 65 -25z"/>
<path d="M662 1658 c-16 -16 -17 -384 -1 -394 6 -4 47 -13 91 -21 84 -14 131
-34 211 -89 27 -19 58 -34 68 -34 10 0 52 22 93 49 74 48 116 63 211 77 28 3
56 11 63 16 16 14 17 379 1 395 -12 12 -40 10 -139 -9 -80 -15 -123 -41 -175
-105 -26 -32 -50 -59 -54 -60 -3 -1 -28 26 -55 59 -56 70 -118 103 -211 113
-33 4 -67 9 -75 11 -9 2 -21 -1 -28 -8z m142 -49 c68 -13 108 -41 161 -109
l45 -58 0 -136 0 -136 -41 30 c-51 37 -128 66 -213 81 l-66 11 0 169 0 169 33
-6 c17 -3 54 -10 81 -15z m566 -149 c0 -191 10 -170 -85 -185 -64 -11 -140
-40 -189 -74 l-46 -32 0 136 0 135 47 60 c26 34 62 70 80 81 26 17 117 40 186
48 4 1 7 -75 7 -169z"/>
<path d="M990 1638 c-11 -12 -20 -27 -20 -34 0 -21 41 -64 61 -64 25 0 59 35
59 60 0 26 -34 60 -60 60 -10 0 -28 -10 -40 -22z"/>
<path d="M582 1558 c-15 -15 -17 -360 -2 -389 9 -16 22 -19 88 -19 120 0 254
-39 291 -84 9 -11 31 -16 68 -16 44 0 61 5 84 24 51 43 134 68 249 73 58 3
111 10 118 16 17 13 17 378 0 395 -33 33 -38 15 -38 -141 0 -107 -4 -158 -12
-170 -9 -11 -42 -22 -98 -31 -108 -18 -130 -26 -212 -83 -78 -53 -104 -53
-168 -3 -57 45 -136 78 -218 89 -114 15 -114 15 -110 198 3 133 1 153 -12 153
-9 0 -21 -5 -28 -12z"/>
<path d="M2270 1270 c0 -37 -2 -39 -18 -29 -31 20 -71 3 -88 -36 -12 -31 -12
-39 0 -70 16 -38 57 -56 87 -37 12 8 20 8 24 2 3 -6 13 -10 21 -10 11 0 14 21
14 110 0 103 -1 110 -20 110 -17 0 -20 -7 -20 -40z m-10 -74 c6 -8 10 -25 8
-38 -2 -18 -9 -23 -33 -23 -24 0 -31 5 -33 23 -2 13 -1 30 2 38 7 18 40 18 56
0z"/>
<path d="M1600 1195 l0 -105 65 0 c58 0 65 2 65 20 0 17 -7 20 -45 20 l-45 0
0 85 c0 78 -2 85 -20 85 -19 0 -20 -7 -20 -105z"/>
<path d="M1772 1234 c-23 -16 -30 -44 -10 -44 6 0 20 7 30 16 14 14 20 14 33
4 21 -17 9 -30 -29 -30 -54 0 -75 -40 -38 -73 22 -20 53 -22 70 -5 9 9 12 9
12 0 0 -7 10 -12 21 -12 20 0 21 4 17 66 -3 50 -9 70 -23 80 -25 18 -55 18
-83 -2z m66 -86 c-8 -22 -36 -34 -50 -20 -10 10 -10 15 2 22 21 14 52 12 48
-2z"/>
<path d="M1962 1241 c-7 -4 -24 -6 -38 -3 -25 5 -25 4 -22 -69 3 -69 5 -74 26
-77 22 -3 23 -1 21 47 -3 54 9 78 35 68 12 -5 16 -21 16 -62 0 -48 3 -55 20
-55 16 0 19 8 22 58 3 49 6 57 23 57 17 0 20 -8 23 -57 3 -50 6 -58 22 -58 18
0 20 7 20 63 0 49 -4 68 -18 80 -21 19 -53 22 -69 6 -8 -8 -17 -8 -31 0 -25
13 -33 13 -50 2z"/>
<path d="M2357 1232 c-33 -36 -12 -58 25 -26 14 14 20 14 33 4 21 -18 9 -30
-29 -30 -41 0 -60 -21 -52 -55 7 -29 50 -44 78 -26 11 7 18 7 18 1 0 -5 10
-10 21 -10 20 0 21 4 17 66 -3 50 -9 70 -23 80 -26 20 -69 17 -88 -4z m71 -84
c-8 -22 -36 -34 -50 -20 -10 10 -10 15 2 22 21 14 52 12 48 -2z"/>
</g>
</svg>
