<svg width="22" height="22" viewBox="0 0 22 22" xmlns="http://www.w3.org/2000/svg">
  <g fill="none" fill-rule="evenodd">
    <path d="M21.56 11.227c0-.78-.07-1.53-.2-2.253H11v4.263h5.92c-.256 1.38-1.03 2.548-2.2 3.33v2.77h3.56c2.08-1.916 3.28-4.74 3.28-8.11Z" fill="#4285F4"/>
    <path d="M11 22c2.97 0 5.46-.983 7.28-2.663l-3.56-2.77c-.99.664-2.26 1.06-3.72 1.06-2.86 0-5.28-1.934-6.14-4.53H1.16v2.84C2.97 19.785 6.7 22 11 22Z" fill="#34A853"/>
    <path d="M4.86 13.097c-.22-.664-.34-1.37-.34-2.097 0-.727.12-1.433.34-2.097V6.063H1.16C.42 7.523 0 9.206 0 11c0 1.794.42 3.477 1.16 4.937l3.7-2.84Z" fill="#FBBC05"/>
    <path d="M11 4.347c1.62 0 3.06.56 4.2 1.66l3.15-3.15C16.46 1.13 13.97 0 11 0 6.7 0 2.97 2.215 1.16 5.063l3.7 2.84c.86-2.596 3.28-4.53 6.14-4.53Z" fill="#EA4335"/>
  </g>
</svg>
